  0
SECTION
  2
BLOCKS
  0
ENDSEC
  0
SECTION
  2
ENTITIES
  0
LINE
  8
0
 10
0
 11
0.57
 20
-40.87
 21
-37.18
  0
LINE
  8
0
 10
0.57
 11
2.17
 20
-37.18
 21
-33.95
  0
LINE
  8
0
 10
2.17
 11
4.61
 20
-33.95
 21
-31.35
  0
LINE
  8
0
 10
4.61
 11
7.73
 20
-31.35
 21
-29.56
  0
LINE
  8
0
 10
7.73
 11
8.77
 20
-29.56
 21
-29.21
  0
LINE
  8
0
 10
8.77
 11
9.86
 20
-29.21
 21
-28.95
  0
LINE
  8
0
 10
9.86
 11
10.98
 20
-28.95
 21
-28.79
  0
LINE
  8
0
 10
10.98
 11
12.13
 20
-28.79
 21
-28.74
  0
LINE
  8
0
 10
12.13
 11
13.41
 20
-28.74
 21
-28.81
  0
LINE
  8
0
 10
13.41
 11
14.64
 20
-28.81
 21
-29
  0
LINE
  8
0
 10
14.64
 11
15.84
 20
-29
 21
-29.32
  0
LINE
  8
0
 10
15.84
 11
16.98
 20
-29.32
 21
-29.75
  0
LINE
  8
0
 10
16.98
 11
17.84
 20
-29.75
 21
-29.93
  0
LINE
  8
0
 10
17.84
 11
18.55
 20
-29.93
 21
-29.73
  0
LINE
  8
0
 10
18.55
 11
18.98
 20
-29.73
 21
-29.25
  0
LINE
  8
0
 10
18.98
 11
19.03
 20
-29.25
 21
-28.56
  0
LINE
  8
0
 10
19.03
 11
19.03
 20
-28.56
 21
-28.57
  0
LINE
  8
0
 10
19.03
 11
19.038
 20
-28.57
 21
-28.57
  0
LINE
  8
0
 10
19.038
 11
18.87
 20
-28.57
 21
-27.54
  0
LINE
  8
0
 10
18.87
 11
18.81
 20
-27.54
 21
-26.5
  0
LINE
  8
0
 10
18.81
 11
18.87
 20
-26.5
 21
-25.46
  0
LINE
  8
0
 10
18.87
 11
19.04
 20
-25.46
 21
-24.43
  0
LINE
  8
0
 10
19.04
 11
19.03
 20
-24.43
 21
-24.44
  0
LINE
  8
0
 10
19.03
 11
18.98
 20
-24.44
 21
-23.75
  0
LINE
  8
0
 10
18.98
 11
18.55
 20
-23.75
 21
-23.27
  0
LINE
  8
0
 10
18.55
 11
17.84
 20
-23.27
 21
-23.07
  0
LINE
  8
0
 10
17.84
 11
16.98
 20
-23.07
 21
-23.25
  0
LINE
  8
0
 10
16.98
 11
15.83
 20
-23.25
 21
-23.68
  0
LINE
  8
0
 10
15.83
 11
14.64
 20
-23.68
 21
-24
  0
LINE
  8
0
 10
14.64
 11
13.41
 20
-24
 21
-24.19
  0
LINE
  8
0
 10
13.41
 11
12.13
 20
-24.19
 21
-24.26
  0
LINE
  8
0
 10
12.13
 11
10.98
 20
-24.26
 21
-24.21
  0
LINE
  8
0
 10
10.98
 11
9.86
 20
-24.21
 21
-24.05
  0
LINE
  8
0
 10
9.86
 11
8.77
 20
-24.05
 21
-23.79
  0
LINE
  8
0
 10
8.77
 11
7.73
 20
-23.79
 21
-23.44
  0
LINE
  8
0
 10
7.73
 11
4.61
 20
-23.44
 21
-21.65
  0
LINE
  8
0
 10
4.61
 11
2.17
 20
-21.65
 21
-19.05
  0
LINE
  8
0
 10
2.17
 11
0.57
 20
-19.05
 21
-15.82
  0
LINE
  8
0
 10
0.57
 11
0
 20
-15.82
 21
-12.13
  0
LINE
  8
0
 10
0
 11
0.95
 20
-12.13
 21
-7.41
  0
LINE
  8
0
 10
0.95
 11
3.55
 20
-7.41
 21
-3.55
  0
LINE
  8
0
 10
3.55
 11
7.41
 20
-3.55
 21
-0.95
  0
LINE
  8
0
 10
7.41
 11
12.13
 20
-0.95
 21
0
  0
LINE
  8
0
 10
12.13
 11
15.84
 20
0
 21
-0.58
  0
LINE
  8
0
 10
15.84
 11
19.08
 20
-0.58
 21
-2.19
  0
LINE
  8
0
 10
19.08
 11
21.68
 20
-2.19
 21
-4.65
  0
LINE
  8
0
 10
21.68
 11
23.46
 20
-4.65
 21
-7.8
  0
LINE
  8
0
 10
23.46
 11
23.8
 20
-7.8
 21
-8.83
  0
LINE
  8
0
 10
23.8
 11
24.05
 20
-8.83
 21
-9.89
  0
LINE
  8
0
 10
24.05
 11
24.21
 20
-9.89
 21
-11
  0
LINE
  8
0
 10
24.21
 11
24.26
 20
-11
 21
-12.13
  0
LINE
  8
0
 10
24.26
 11
24.23
 20
-12.13
 21
-13.03
  0
LINE
  8
0
 10
24.23
 11
24.13
 20
-13.03
 21
-13.91
  0
LINE
  8
0
 10
24.13
 11
23.97
 20
-13.91
 21
-14.78
  0
LINE
  8
0
 10
23.97
 11
23.75
 20
-14.78
 21
-15.62
  0
LINE
  8
0
 10
23.75
 11
23.68
 20
-15.62
 21
-16.5
  0
LINE
  8
0
 10
23.68
 11
23.95
 20
-16.5
 21
-17.17
  0
LINE
  8
0
 10
23.95
 11
24.48
 20
-17.17
 21
-17.54
  0
LINE
  8
0
 10
24.48
 11
25.17
 20
-17.54
 21
-17.52
  0
LINE
  8
0
 10
25.17
 11
25.94
 20
-17.52
 21
-17.28
  0
LINE
  8
0
 10
25.94
 11
26.73
 20
-17.28
 21
-17.11
  0
LINE
  8
0
 10
26.73
 11
27.53
 20
-17.11
 21
-17.01
  0
LINE
  8
0
 10
27.53
 11
28.34
 20
-17.01
 21
-16.98
  0
LINE
  8
0
 10
28.34
 11
28.33
 20
-16.98
 21
-16.98
  0
LINE
  8
0
 10
28.33
 11
29
 20
-16.98
 21
-16.8
  0
LINE
  8
0
 10
29
 11
29.42
 20
-16.8
 21
-16.36
  0
LINE
  8
0
 10
29.42
 11
29.53
 20
-16.36
 21
-15.77
  0
LINE
  8
0
 10
29.53
 11
29.28
 20
-15.77
 21
-15.12
  0
LINE
  8
0
 10
29.28
 11
29.28
 20
-15.12
 21
-15.13
  0
LINE
  8
0
 10
29.28
 11
28.51
 20
-15.13
 21
-13.87
  0
LINE
  8
0
 10
28.51
 11
27.93
 20
-13.87
 21
-12.5
  0
LINE
  8
0
 10
27.93
 11
27.58
 20
-12.5
 21
-11.04
  0
LINE
  8
0
 10
27.58
 11
27.46
 20
-11.04
 21
-9.53
  0
LINE
  8
0
 10
27.46
 11
27.47
 20
-9.53
 21
-9
  0
LINE
  8
0
 10
27.47
 11
27.51
 20
-9
 21
-8.48
  0
LINE
  8
0
 10
27.51
 11
27.58
 20
-8.48
 21
-7.97
  0
LINE
  8
0
 10
27.58
 11
27.68
 20
-7.97
 21
-7.46
  0
LINE
  8
0
 10
27.68
 11
28.89
 20
-7.46
 21
-4.5
  0
LINE
  8
0
 10
28.89
 11
30.98
 20
-4.5
 21
-2.13
  0
LINE
  8
0
 10
30.98
 11
33.74
 20
-2.13
 21
-0.57
  0
LINE
  8
0
 10
33.74
 11
36.98
 20
-0.57
 21
0
  0
LINE
  8
0
 10
36.98
 11
38.1
 20
0
 21
-0.07
  0
LINE
  8
0
 10
38.1
 11
39.21
 20
-0.07
 21
-0.26
  0
LINE
  8
0
 10
39.21
 11
40.28
 20
-0.26
 21
-0.59
  0
LINE
  8
0
 10
40.28
 11
41.31
 20
-0.59
 21
-1.04
  0
LINE
  8
0
 10
41.31
 11
42.62
 20
-1.04
 21
-1.85
  0
LINE
  8
0
 10
42.62
 11
43.76
 20
-1.85
 21
-2.83
  0
LINE
  8
0
 10
43.76
 11
44.71
 20
-2.83
 21
-3.96
  0
LINE
  8
0
 10
44.71
 11
45.47
 20
-3.96
 21
-5.21
  0
LINE
  8
0
 10
45.47
 11
45.47
 20
-5.21
 21
-5.2
  0
LINE
  8
0
 10
45.47
 11
45.93
 20
-5.2
 21
-5.72
  0
LINE
  8
0
 10
45.93
 11
46.51
 20
-5.72
 21
-5.9
  0
LINE
  8
0
 10
46.51
 11
47.09
 20
-5.9
 21
-5.72
  0
LINE
  8
0
 10
47.09
 11
47.55
 20
-5.72
 21
-5.2
  0
LINE
  8
0
 10
47.55
 11
49.02
 20
-5.2
 21
-3.09
  0
LINE
  8
0
 10
49.02
 11
50.99
 20
-3.09
 21
-1.44
  0
LINE
  8
0
 10
50.99
 11
53.37
 20
-1.44
 21
-0.38
  0
LINE
  8
0
 10
53.37
 11
56.03
 20
-0.38
 21
0
  0
LINE
  8
0
 10
56.03
 11
56.91
 20
0
 21
-0.04
  0
LINE
  8
0
 10
56.91
 11
57.78
 20
-0.04
 21
-0.16
  0
LINE
  8
0
 10
57.78
 11
58.63
 20
-0.16
 21
-0.36
  0
LINE
  8
0
 10
58.63
 11
59.47
 20
-0.36
 21
-0.64
  0
LINE
  8
0
 10
59.47
 11
59.69
 20
-0.64
 21
-0.73
  0
LINE
  8
0
 10
59.69
 11
59.92
 20
-0.73
 21
-0.83
  0
LINE
  8
0
 10
59.92
 11
60.14
 20
-0.83
 21
-0.93
  0
LINE
  8
0
 10
60.14
 11
60.36
 20
-0.93
 21
-1.04
  0
LINE
  8
0
 10
60.36
 11
62.44
 20
-1.04
 21
-2.47
  0
LINE
  8
0
 10
62.44
 11
64.02
 20
-2.47
 21
-4.33
  0
LINE
  8
0
 10
64.02
 11
65.06
 20
-4.33
 21
-6.49
  0
LINE
  8
0
 10
65.06
 11
65.54
 20
-6.49
 21
-8.85
  0
LINE
  8
0
 10
65.54
 11
65.77
 20
-8.85
 21
-9.52
  0
LINE
  8
0
 10
65.77
 11
66.29
 20
-9.52
 21
-9.9
  0
LINE
  8
0
 10
66.29
 11
66.96
 20
-9.9
 21
-9.94
  0
LINE
  8
0
 10
66.96
 11
67.67
 20
-9.94
 21
-9.58
  0
LINE
  8
0
 10
67.67
 11
67.66
 20
-9.58
 21
-9.58
  0
LINE
  8
0
 10
67.66
 11
69.13
 20
-9.58
 21
-8.57
  0
LINE
  8
0
 10
69.13
 11
70.76
 20
-8.57
 21
-7.82
  0
LINE
  8
0
 10
70.76
 11
72.52
 20
-7.82
 21
-7.34
  0
LINE
  8
0
 10
72.52
 11
74.4
 20
-7.34
 21
-7.17
  0
LINE
  8
0
 10
74.4
 11
75.39
 20
-7.17
 21
-7.22
  0
LINE
  8
0
 10
75.39
 11
76.37
 20
-7.22
 21
-7.36
  0
LINE
  8
0
 10
76.37
 11
77.31
 20
-7.36
 21
-7.58
  0
LINE
  8
0
 10
77.31
 11
78.22
 20
-7.58
 21
-7.88
  0
LINE
  8
0
 10
78.22
 11
79.13
 20
-7.88
 21
-8.29
  0
LINE
  8
0
 10
79.13
 11
80.01
 20
-8.29
 21
-8.78
  0
LINE
  8
0
 10
80.01
 11
80.82
 20
-8.78
 21
-9.34
  0
LINE
  8
0
 10
80.82
 11
81.58
 20
-9.34
 21
-9.98
  0
LINE
  8
0
 10
81.58
 11
83
 20
-9.98
 21
-11.58
  0
LINE
  8
0
 10
83
 11
84.08
 20
-11.58
 21
-13.45
  0
LINE
  8
0
 10
84.08
 11
84.76
 20
-13.45
 21
-15.53
  0
LINE
  8
0
 10
84.76
 11
85
 20
-15.53
 21
-17.78
  0
LINE
  8
0
 10
85
 11
84.58
 20
-17.78
 21
-20.73
  0
LINE
  8
0
 10
84.58
 11
83.41
 20
-20.73
 21
-23.36
  0
LINE
  8
0
 10
83.41
 11
81.6
 20
-23.36
 21
-25.56
  0
LINE
  8
0
 10
81.6
 11
79.27
 20
-25.56
 21
-27.2
  0
LINE
  8
0
 10
79.27
 11
78.57
 20
-27.2
 21
-27.82
  0
LINE
  8
0
 10
78.57
 11
78.34
 20
-27.82
 21
-28.61
  0
LINE
  8
0
 10
78.34
 11
78.6
 20
-28.61
 21
-29.45
  0
LINE
  8
0
 10
78.6
 11
79.35
 20
-29.45
 21
-30.2
  0
LINE
  8
0
 10
79.35
 11
81.62
 20
-30.2
 21
-32.1
  0
LINE
  8
0
 10
81.62
 11
83.38
 20
-32.1
 21
-34.5
  0
LINE
  8
0
 10
83.38
 11
84.5
 20
-34.5
 21
-37.3
  0
LINE
  8
0
 10
84.5
 11
84.9
 20
-37.3
 21
-40.39
  0
LINE
  8
0
 10
84.9
 11
83.94
 20
-40.39
 21
-45.11
  0
LINE
  8
0
 10
83.94
 11
81.34
 20
-45.11
 21
-48.96
  0
LINE
  8
0
 10
81.34
 11
77.49
 20
-48.96
 21
-51.56
  0
LINE
  8
0
 10
77.49
 11
72.77
 20
-51.56
 21
-52.52
  0
LINE
  8
0
 10
72.77
 11
69.76
 20
-52.52
 21
-52.14
  0
LINE
  8
0
 10
69.76
 11
67.02
 20
-52.14
 21
-51.07
  0
LINE
  8
0
 10
67.02
 11
64.66
 20
-51.07
 21
-49.41
  0
LINE
  8
0
 10
64.66
 11
62.75
 20
-49.41
 21
-47.23
  0
LINE
  8
0
 10
62.75
 11
62.11
 20
-47.23
 21
-46.59
  0
LINE
  8
0
 10
62.11
 11
61.4
 20
-46.59
 21
-46.36
  0
LINE
  8
0
 10
61.4
 11
60.78
 20
-46.36
 21
-46.52
  0
LINE
  8
0
 10
60.78
 11
60.38
 20
-46.52
 21
-47.04
  0
LINE
  8
0
 10
60.38
 11
59.08
 20
-47.04
 21
-49.44
  0
LINE
  8
0
 10
59.08
 11
57.15
 20
-49.44
 21
-51.32
  0
LINE
  8
0
 10
57.15
 11
54.72
 20
-51.32
 21
-52.56
  0
LINE
  8
0
 10
54.72
 11
51.94
 20
-52.56
 21
-53
  0
LINE
  8
0
 10
51.94
 11
49.43
 20
-53
 21
-52.64
  0
LINE
  8
0
 10
49.43
 11
47.2
 20
-52.64
 21
-51.64
  0
LINE
  8
0
 10
47.2
 11
45.34
 20
-51.64
 21
-50.1
  0
LINE
  8
0
 10
45.34
 11
43.96
 20
-50.1
 21
-48.11
  0
LINE
  8
0
 10
43.96
 11
43.53
 20
-48.11
 21
-47.62
  0
LINE
  8
0
 10
43.53
 11
42.98
 20
-47.62
 21
-47.46
  0
LINE
  8
0
 10
42.98
 11
42.43
 20
-47.46
 21
-47.62
  0
LINE
  8
0
 10
42.43
 11
42.01
 20
-47.62
 21
-48.11
  0
LINE
  8
0
 10
42.01
 11
40.62
 20
-48.11
 21
-50.1
  0
LINE
  8
0
 10
40.62
 11
38.77
 20
-50.1
 21
-51.64
  0
LINE
  8
0
 10
38.77
 11
36.53
 20
-51.64
 21
-52.64
  0
LINE
  8
0
 10
36.53
 11
34.03
 20
-52.64
 21
-53
  0
LINE
  8
0
 10
34.03
 11
30.54
 20
-53
 21
-52.3
  0
LINE
  8
0
 10
30.54
 11
27.69
 20
-52.3
 21
-50.38
  0
LINE
  8
0
 10
27.69
 11
25.78
 20
-50.38
 21
-47.53
  0
LINE
  8
0
 10
25.78
 11
25.07
 20
-47.53
 21
-44.04
  0
LINE
  8
0
 10
25.07
 11
25.23
 20
-44.04
 21
-42.36
  0
LINE
  8
0
 10
25.23
 11
25.69
 20
-42.36
 21
-40.78
  0
LINE
  8
0
 10
25.69
 11
26.41
 20
-40.78
 21
-39.33
  0
LINE
  8
0
 10
26.41
 11
27.37
 20
-39.33
 21
-38.05
  0
LINE
  8
0
 10
27.37
 11
27.73
 20
-38.05
 21
-37.39
  0
LINE
  8
0
 10
27.73
 11
27.69
 20
-37.39
 21
-36.72
  0
LINE
  8
0
 10
27.69
 11
27.28
 20
-36.72
 21
-36.18
  0
LINE
  8
0
 10
27.28
 11
26.54
 20
-36.18
 21
-35.86
  0
LINE
  8
0
 10
26.54
 11
26.55
 20
-35.86
 21
-35.85
  0
LINE
  8
0
 10
26.55
 11
26.2
 20
-35.85
 21
-35.78
  0
LINE
  8
0
 10
26.2
 11
25.85
 20
-35.78
 21
-35.7
  0
LINE
  8
0
 10
25.85
 11
25.51
 20
-35.7
 21
-35.6
  0
LINE
  8
0
 10
25.51
 11
25.17
 20
-35.6
 21
-35.49
  0
LINE
  8
0
 10
25.17
 11
24.48
 20
-35.49
 21
-35.46
  0
LINE
  8
0
 10
24.48
 11
23.95
 20
-35.46
 21
-35.83
  0
LINE
  8
0
 10
23.95
 11
23.68
 20
-35.83
 21
-36.5
  0
LINE
  8
0
 10
23.68
 11
23.75
 20
-36.5
 21
-37.38
  0
LINE
  8
0
 10
23.75
 11
23.97
 20
-37.38
 21
-38.22
  0
LINE
  8
0
 10
23.97
 11
24.13
 20
-38.22
 21
-39.08
  0
LINE
  8
0
 10
24.13
 11
24.23
 20
-39.08
 21
-39.97
  0
LINE
  8
0
 10
24.23
 11
24.26
 20
-39.97
 21
-40.87
  0
LINE
  8
0
 10
24.26
 11
23.31
 20
-40.87
 21
-45.59
  0
LINE
  8
0
 10
23.31
 11
20.71
 20
-45.59
 21
-49.45
  0
LINE
  8
0
 10
20.71
 11
16.85
 20
-49.45
 21
-52.05
  0
LINE
  8
0
 10
16.85
 11
12.13
 20
-52.05
 21
-53
  0
LINE
  8
0
 10
12.13
 11
7.41
 20
-53
 21
-52.05
  0
LINE
  8
0
 10
7.41
 11
3.55
 20
-52.05
 21
-49.45
  0
LINE
  8
0
 10
3.55
 11
0.95
 20
-49.45
 21
-45.59
  0
LINE
  8
0
 10
0.95
 11
0
 20
-45.59
 21
-40.87
  0
ENDSEC
  0
SECTION
  2
OBJECTS
  0
DICTIONARY
  0
ENDSEC
  0
EOF
