  0
SECTION
  2
BLOCKS
  0
ENDSEC
  0
SECTION
  2
ENTITIES
  0
LINE
  8
0
 10
34.85
 11
34.86
 20
-34.39
 21
-33.71
  0
LINE
  8
0
 10
34.86
 11
35.27
 20
-33.71
 21
-33.02
  0
LINE
  8
0
 10
35.27
 11
35.72
 20
-33.02
 21
-32.51
  0
LINE
  8
0
 10
35.72
 11
36.13
 20
-32.51
 21
-31.97
  0
LINE
  8
0
 10
36.13
 11
36.49
 20
-31.97
 21
-31.41
  0
LINE
  8
0
 10
36.49
 11
36.81
 20
-31.41
 21
-30.83
  0
LINE
  8
0
 10
36.81
 11
37.27
 20
-30.83
 21
-30.31
  0
LINE
  8
0
 10
37.27
 11
37.86
 20
-30.31
 21
-30.13
  0
LINE
  8
0
 10
37.86
 11
38.44
 20
-30.13
 21
-30.31
  0
LINE
  8
0
 10
38.44
 11
38.9
 20
-30.31
 21
-30.83
  0
LINE
  8
0
 10
38.9
 11
39.87
 20
-30.83
 21
-32.35
  0
LINE
  8
0
 10
39.87
 11
41.11
 20
-32.35
 21
-33.66
  0
LINE
  8
0
 10
41.11
 11
42.57
 20
-33.66
 21
-34.72
  0
LINE
  8
0
 10
42.57
 11
44.23
 20
-34.72
 21
-35.48
  0
LINE
  8
0
 10
44.23
 11
45.08
 20
-35.48
 21
-35.99
  0
LINE
  8
0
 10
45.08
 11
45.52
 20
-35.99
 21
-36.68
  0
LINE
  8
0
 10
45.52
 11
45.52
 20
-36.68
 21
-37.48
  0
LINE
  8
0
 10
45.52
 11
45.06
 20
-37.48
 21
-38.31
  0
LINE
  8
0
 10
45.06
 11
44.75
 20
-38.31
 21
-38.7
  0
LINE
  8
0
 10
44.75
 11
44.46
 20
-38.7
 21
-39.11
  0
LINE
  8
0
 10
44.46
 11
44.2
 20
-39.11
 21
-39.54
  0
LINE
  8
0
 10
44.2
 11
43.96
 20
-39.54
 21
-39.98
  0
LINE
  8
0
 10
43.96
 11
43.53
 20
-39.98
 21
-40.47
  0
LINE
  8
0
 10
43.53
 11
42.98
 20
-40.47
 21
-40.63
  0
LINE
  8
0
 10
42.98
 11
42.43
 20
-40.63
 21
-40.47
  0
LINE
  8
0
 10
42.43
 11
42.01
 20
-40.47
 21
-39.98
  0
LINE
  8
0
 10
42.01
 11
40.91
 20
-39.98
 21
-38.33
  0
LINE
  8
0
 10
40.91
 11
39.49
 20
-38.33
 21
-36.95
  0
LINE
  8
0
 10
39.49
 11
37.8
 20
-36.95
 21
-35.92
  0
LINE
  8
0
 10
37.8
 11
35.88
 20
-35.92
 21
-35.28
  0
LINE
  8
0
 10
35.88
 11
35.2
 20
-35.28
 21
-34.95
  0
LINE
  8
0
 10
35.2
 11
34.85
 20
-34.95
 21
-34.39
  0
LINE
  8
0
 10
35.78
 11
35.89
 20
-20.26
 21
-19.66
  0
LINE
  8
0
 10
35.89
 11
36.31
 20
-19.66
 21
-19.22
  0
LINE
  8
0
 10
36.31
 11
36.98
 20
-19.22
 21
-19.05
  0
LINE
  8
0
 10
36.98
 11
37.17
 20
-19.05
 21
-19.05
  0
LINE
  8
0
 10
37.17
 11
37.36
 20
-19.05
 21
-19.04
  0
LINE
  8
0
 10
37.36
 11
37.54
 20
-19.04
 21
-19.03
  0
LINE
  8
0
 10
37.54
 11
37.73
 20
-19.03
 21
-19.02
  0
LINE
  8
0
 10
37.73
 11
38.69
 20
-19.02
 21
-19.19
  0
LINE
  8
0
 10
38.69
 11
39.33
 20
-19.19
 21
-19.76
  0
LINE
  8
0
 10
39.33
 11
39.55
 20
-19.76
 21
-20.59
  0
LINE
  8
0
 10
39.55
 11
39.26
 20
-20.59
 21
-21.52
  0
LINE
  8
0
 10
39.26
 11
39.27
 20
-21.52
 21
-21.51
  0
LINE
  8
0
 10
39.27
 11
39.17
 20
-21.51
 21
-21.67
  0
LINE
  8
0
 10
39.17
 11
39.08
 20
-21.67
 21
-21.83
  0
LINE
  8
0
 10
39.08
 11
38.98
 20
-21.83
 21
-22
  0
LINE
  8
0
 10
38.98
 11
38.9
 20
-22
 21
-22.17
  0
LINE
  8
0
 10
38.9
 11
38.9
 20
-22.17
 21
-22.16
  0
LINE
  8
0
 10
38.9
 11
38.44
 20
-22.16
 21
-22.68
  0
LINE
  8
0
 10
38.44
 11
37.86
 20
-22.68
 21
-22.86
  0
LINE
  8
0
 10
37.86
 11
37.28
 20
-22.86
 21
-22.69
  0
LINE
  8
0
 10
37.28
 11
36.82
 20
-22.69
 21
-22.19
  0
LINE
  8
0
 10
36.82
 11
36.65
 20
-22.19
 21
-21.86
  0
LINE
  8
0
 10
36.65
 11
36.46
 20
-21.86
 21
-21.53
  0
LINE
  8
0
 10
36.46
 11
36.25
 20
-21.53
 21
-21.21
  0
LINE
  8
0
 10
36.25
 11
36.04
 20
-21.21
 21
-20.9
  0
LINE
  8
0
 10
36.04
 11
35.78
 20
-20.9
 21
-20.26
  0
LINE
  8
0
 10
44.82
 11
45.1
 20
-15.44
 21
-14.5
  0
LINE
  8
0
 10
45.1
 11
45.1
 20
-14.5
 21
-14.51
  0
LINE
  8
0
 10
45.1
 11
45.19
 20
-14.51
 21
-14.35
  0
LINE
  8
0
 10
45.19
 11
45.29
 20
-14.35
 21
-14.18
  0
LINE
  8
0
 10
45.29
 11
45.38
 20
-14.18
 21
-14.02
  0
LINE
  8
0
 10
45.38
 11
45.47
 20
-14.02
 21
-13.85
  0
LINE
  8
0
 10
45.47
 11
45.93
 20
-13.85
 21
-13.33
  0
LINE
  8
0
 10
45.93
 11
46.51
 20
-13.33
 21
-13.16
  0
LINE
  8
0
 10
46.51
 11
47.09
 20
-13.16
 21
-13.33
  0
LINE
  8
0
 10
47.09
 11
47.55
 20
-13.33
 21
-13.85
  0
LINE
  8
0
 10
47.55
 11
47.55
 20
-13.85
 21
-13.84
  0
LINE
  8
0
 10
47.55
 11
47.71
 20
-13.84
 21
-14.15
  0
LINE
  8
0
 10
47.71
 11
47.88
 20
-14.15
 21
-14.45
  0
LINE
  8
0
 10
47.88
 11
48.07
 20
-14.45
 21
-14.75
  0
LINE
  8
0
 10
48.07
 11
48.27
 20
-14.75
 21
-15.04
  0
LINE
  8
0
 10
48.27
 11
48.26
 20
-15.04
 21
-15.04
  0
LINE
  8
0
 10
48.26
 11
48.53
 20
-15.04
 21
-15.71
  0
LINE
  8
0
 10
48.53
 11
48.41
 20
-15.71
 21
-16.33
  0
LINE
  8
0
 10
48.41
 11
47.98
 20
-16.33
 21
-16.79
  0
LINE
  8
0
 10
47.98
 11
47.28
 20
-16.79
 21
-16.97
  0
LINE
  8
0
 10
47.28
 11
47.12
 20
-16.97
 21
-16.98
  0
LINE
  8
0
 10
47.12
 11
46.96
 20
-16.98
 21
-16.98
  0
LINE
  8
0
 10
46.96
 11
46.79
 20
-16.98
 21
-16.99
  0
LINE
  8
0
 10
46.79
 11
46.63
 20
-16.99
 21
-17
  0
LINE
  8
0
 10
46.63
 11
45.67
 20
-17
 21
-16.83
  0
LINE
  8
0
 10
45.67
 11
45.04
 20
-16.83
 21
-16.26
  0
LINE
  8
0
 10
45.04
 11
44.82
 20
-16.26
 21
-15.44
  0
LINE
  8
0
 10
53.96
 11
54.01
 20
-34.48
 21
-33.66
  0
LINE
  8
0
 10
54.01
 11
54.52
 20
-33.66
 21
-32.8
  0
LINE
  8
0
 10
54.52
 11
55.52
 20
-32.8
 21
-31.45
  0
LINE
  8
0
 10
55.52
 11
56.27
 20
-31.45
 21
-29.92
  0
LINE
  8
0
 10
56.27
 11
56.74
 20
-29.92
 21
-28.26
  0
LINE
  8
0
 10
56.74
 11
56.91
 20
-28.26
 21
-26.5
  0
LINE
  8
0
 10
56.91
 11
56.79
 20
-26.5
 21
-25.01
  0
LINE
  8
0
 10
56.79
 11
56.45
 20
-25.01
 21
-23.58
  0
LINE
  8
0
 10
56.45
 11
55.9
 20
-23.58
 21
-22.23
  0
LINE
  8
0
 10
55.9
 11
55.15
 20
-22.23
 21
-20.98
  0
LINE
  8
0
 10
55.15
 11
55.15
 20
-20.98
 21
-20.99
  0
LINE
  8
0
 10
55.15
 11
54.89
 20
-20.99
 21
-20.31
  0
LINE
  8
0
 10
54.89
 11
55
 20
-20.31
 21
-19.69
  0
LINE
  8
0
 10
55
 11
55.44
 20
-19.69
 21
-19.23
  0
LINE
  8
0
 10
55.44
 11
56.14
 20
-19.23
 21
-19.05
  0
LINE
  8
0
 10
56.14
 11
56.13
 20
-19.05
 21
-19.05
  0
LINE
  8
0
 10
56.13
 11
57.66
 20
-19.05
 21
-18.91
  0
LINE
  8
0
 10
57.66
 11
59.14
 20
-18.91
 21
-18.53
  0
LINE
  8
0
 10
59.14
 11
60.54
 20
-18.53
 21
-17.91
  0
LINE
  8
0
 10
60.54
 11
61.84
 20
-17.91
 21
-17.08
  0
LINE
  8
0
 10
61.84
 11
61.83
 20
-17.08
 21
-17.08
  0
LINE
  8
0
 10
61.83
 11
62.49
 20
-17.08
 21
-16.81
  0
LINE
  8
0
 10
62.49
 11
63.12
 20
-16.81
 21
-16.95
  0
LINE
  8
0
 10
63.12
 11
63.59
 20
-16.95
 21
-17.42
  0
LINE
  8
0
 10
63.59
 11
63.8
 20
-17.42
 21
-18.19
  0
LINE
  8
0
 10
63.8
 11
63.8
 20
-18.19
 21
-18.18
  0
LINE
  8
0
 10
63.8
 11
64.18
 20
-18.18
 21
-20.63
  0
LINE
  8
0
 10
64.18
 11
65.09
 20
-20.63
 21
-22.87
  0
LINE
  8
0
 10
65.09
 11
66.46
 20
-22.87
 21
-24.81
  0
LINE
  8
0
 10
66.46
 11
68.22
 20
-24.81
 21
-26.4
  0
LINE
  8
0
 10
68.22
 11
68.82
 20
-26.4
 21
-27.11
  0
LINE
  8
0
 10
68.82
 11
68.94
 20
-27.11
 21
-27.94
  0
LINE
  8
0
 10
68.94
 11
68.56
 20
-27.94
 21
-28.73
  0
LINE
  8
0
 10
68.56
 11
67.71
 20
-28.73
 21
-29.36
  0
LINE
  8
0
 10
67.71
 11
65.4
 20
-29.36
 21
-30.75
  0
LINE
  8
0
 10
65.4
 11
63.46
 20
-30.75
 21
-32.61
  0
LINE
  8
0
 10
63.46
 11
61.98
 20
-32.61
 21
-34.85
  0
LINE
  8
0
 10
61.98
 11
61.01
 20
-34.85
 21
-37.4
  0
LINE
  8
0
 10
61.01
 11
60.61
 20
-37.4
 21
-38.2
  0
LINE
  8
0
 10
60.61
 11
60.03
 20
-38.2
 21
-38.65
  0
LINE
  8
0
 10
60.03
 11
59.4
 20
-38.65
 21
-38.71
  0
LINE
  8
0
 10
59.4
 11
58.84
 20
-38.71
 21
-38.35
  0
LINE
  8
0
 10
58.84
 11
58.06
 20
-38.35
 21
-37.51
  0
LINE
  8
0
 10
58.06
 11
57.18
 20
-37.51
 21
-36.78
  0
LINE
  8
0
 10
57.18
 11
56.2
 20
-36.78
 21
-36.17
  0
LINE
  8
0
 10
56.2
 11
55.15
 20
-36.17
 21
-35.69
  0
LINE
  8
0
 10
55.15
 11
54.35
 20
-35.69
 21
-35.18
  0
LINE
  8
0
 10
54.35
 11
53.96
 20
-35.18
 21
-34.48
  0
ENDSEC
  0
SECTION
  2
OBJECTS
  0
DICTIONARY
  0
ENDSEC
  0
EOF
