  0
SECTION
  2
BLOCKS
  0
ENDSEC
  0
SECTION
  2
ENTITIES
  0
LINE
  8
0
 10
4.63
 11
5.22
 20
-40.87
 21
-37.95
  0
LINE
  8
0
 10
5.22
 11
6.83
 20
-37.95
 21
-35.57
  0
LINE
  8
0
 10
6.83
 11
9.21
 20
-35.57
 21
-33.96
  0
LINE
  8
0
 10
9.21
 11
12.13
 20
-33.96
 21
-33.37
  0
LINE
  8
0
 10
12.13
 11
15.05
 20
-33.37
 21
-33.96
  0
LINE
  8
0
 10
15.05
 11
17.43
 20
-33.96
 21
-35.57
  0
LINE
  8
0
 10
17.43
 11
19.04
 20
-35.57
 21
-37.95
  0
LINE
  8
0
 10
19.04
 11
19.63
 20
-37.95
 21
-40.87
  0
LINE
  8
0
 10
19.63
 11
19.04
 20
-40.87
 21
-43.79
  0
LINE
  8
0
 10
19.04
 11
17.43
 20
-43.79
 21
-46.17
  0
LINE
  8
0
 10
17.43
 11
15.05
 20
-46.17
 21
-47.78
  0
LINE
  8
0
 10
15.05
 11
12.13
 20
-47.78
 21
-48.37
  0
LINE
  8
0
 10
12.13
 11
9.21
 20
-48.37
 21
-47.78
  0
LINE
  8
0
 10
9.21
 11
6.83
 20
-47.78
 21
-46.17
  0
LINE
  8
0
 10
6.83
 11
5.22
 20
-46.17
 21
-43.79
  0
LINE
  8
0
 10
5.22
 11
4.63
 20
-43.79
 21
-40.87
  0
LINE
  8
0
 10
4.63
 11
5.22
 20
-12.13
 21
-9.21
  0
LINE
  8
0
 10
5.22
 11
6.83
 20
-9.21
 21
-6.83
  0
LINE
  8
0
 10
6.83
 11
9.21
 20
-6.83
 21
-5.22
  0
LINE
  8
0
 10
9.21
 11
12.13
 20
-5.22
 21
-4.63
  0
LINE
  8
0
 10
12.13
 11
15.05
 20
-4.63
 21
-5.22
  0
LINE
  8
0
 10
15.05
 11
17.43
 20
-5.22
 21
-6.83
  0
LINE
  8
0
 10
17.43
 11
19.04
 20
-6.83
 21
-9.21
  0
LINE
  8
0
 10
19.04
 11
19.63
 20
-9.21
 21
-12.13
  0
LINE
  8
0
 10
19.63
 11
19.04
 20
-12.13
 21
-15.05
  0
LINE
  8
0
 10
19.04
 11
17.43
 20
-15.05
 21
-17.43
  0
LINE
  8
0
 10
17.43
 11
15.05
 20
-17.43
 21
-19.04
  0
LINE
  8
0
 10
15.05
 11
12.13
 20
-19.04
 21
-19.63
  0
LINE
  8
0
 10
12.13
 11
9.21
 20
-19.63
 21
-19.04
  0
LINE
  8
0
 10
9.21
 11
6.83
 20
-19.04
 21
-17.43
  0
LINE
  8
0
 10
6.83
 11
5.22
 20
-17.43
 21
-15.05
  0
LINE
  8
0
 10
5.22
 11
4.63
 20
-15.05
 21
-12.13
  0
LINE
  8
0
 10
20.83
 11
21.42
 20
-26.5
 21
-23.58
  0
LINE
  8
0
 10
21.42
 11
23.03
 20
-23.58
 21
-21.2
  0
LINE
  8
0
 10
23.03
 11
25.41
 20
-21.2
 21
-19.59
  0
LINE
  8
0
 10
25.41
 11
28.33
 20
-19.59
 21
-19
  0
LINE
  8
0
 10
28.33
 11
31.25
 20
-19
 21
-19.59
  0
LINE
  8
0
 10
31.25
 11
33.63
 20
-19.59
 21
-21.2
  0
LINE
  8
0
 10
33.63
 11
35.24
 20
-21.2
 21
-23.58
  0
LINE
  8
0
 10
35.24
 11
35.83
 20
-23.58
 21
-26.5
  0
LINE
  8
0
 10
35.83
 11
35.24
 20
-26.5
 21
-29.42
  0
LINE
  8
0
 10
35.24
 11
33.63
 20
-29.42
 21
-31.8
  0
LINE
  8
0
 10
33.63
 11
31.25
 20
-31.8
 21
-33.41
  0
LINE
  8
0
 10
31.25
 11
28.33
 20
-33.41
 21
-34
  0
LINE
  8
0
 10
28.33
 11
25.41
 20
-34
 21
-33.41
  0
LINE
  8
0
 10
25.41
 11
23.03
 20
-33.41
 21
-31.8
  0
LINE
  8
0
 10
23.03
 11
21.42
 20
-31.8
 21
-29.42
  0
LINE
  8
0
 10
21.42
 11
20.83
 20
-29.42
 21
-26.5
  0
LINE
  8
0
 10
26.53
 11
27.12
 20
-44.04
 21
-41.13
  0
LINE
  8
0
 10
27.12
 11
28.72
 20
-41.13
 21
-38.74
  0
LINE
  8
0
 10
28.72
 11
31.11
 20
-38.74
 21
-37.13
  0
LINE
  8
0
 10
31.11
 11
34.03
 20
-37.13
 21
-36.54
  0
LINE
  8
0
 10
34.03
 11
36.95
 20
-36.54
 21
-37.13
  0
LINE
  8
0
 10
36.95
 11
39.33
 20
-37.13
 21
-38.74
  0
LINE
  8
0
 10
39.33
 11
40.94
 20
-38.74
 21
-41.13
  0
LINE
  8
0
 10
40.94
 11
41.53
 20
-41.13
 21
-44.04
  0
LINE
  8
0
 10
41.53
 11
40.94
 20
-44.04
 21
-46.96
  0
LINE
  8
0
 10
40.94
 11
39.33
 20
-46.96
 21
-49.35
  0
LINE
  8
0
 10
39.33
 11
36.95
 20
-49.35
 21
-50.96
  0
LINE
  8
0
 10
36.95
 11
34.03
 20
-50.96
 21
-51.54
  0
LINE
  8
0
 10
34.03
 11
31.11
 20
-51.54
 21
-50.96
  0
LINE
  8
0
 10
31.11
 11
28.72
 20
-50.96
 21
-49.35
  0
LINE
  8
0
 10
28.72
 11
27.12
 20
-49.35
 21
-46.96
  0
LINE
  8
0
 10
27.12
 11
26.53
 20
-46.96
 21
-44.04
  0
LINE
  8
0
 10
29.31
 11
29.9
 20
-9.53
 21
-6.61
  0
LINE
  8
0
 10
29.9
 11
31.51
 20
-6.61
 21
-4.22
  0
LINE
  8
0
 10
31.51
 11
33.89
 20
-4.22
 21
-2.62
  0
LINE
  8
0
 10
33.89
 11
36.81
 20
-2.62
 21
-2.03
  0
LINE
  8
0
 10
36.81
 11
39.73
 20
-2.03
 21
-2.62
  0
LINE
  8
0
 10
39.73
 11
42.11
 20
-2.62
 21
-4.22
  0
LINE
  8
0
 10
42.11
 11
43.72
 20
-4.22
 21
-6.61
  0
LINE
  8
0
 10
43.72
 11
44.31
 20
-6.61
 21
-9.53
  0
LINE
  8
0
 10
44.31
 11
43.72
 20
-9.53
 21
-12.45
  0
LINE
  8
0
 10
43.72
 11
42.11
 20
-12.45
 21
-14.83
  0
LINE
  8
0
 10
42.11
 11
39.73
 20
-14.83
 21
-16.44
  0
LINE
  8
0
 10
39.73
 11
36.81
 20
-16.44
 21
-17.03
  0
LINE
  8
0
 10
36.81
 11
33.89
 20
-17.03
 21
-16.44
  0
LINE
  8
0
 10
33.89
 11
31.51
 20
-16.44
 21
-14.83
  0
LINE
  8
0
 10
31.51
 11
29.9
 20
-14.83
 21
-12.45
  0
LINE
  8
0
 10
29.9
 11
29.31
 20
-12.45
 21
-9.53
  0
LINE
  8
0
 10
40.05
 11
40.64
 20
-26.5
 21
-23.58
  0
LINE
  8
0
 10
40.64
 11
42.24
 20
-23.58
 21
-21.2
  0
LINE
  8
0
 10
42.24
 11
44.63
 20
-21.2
 21
-19.59
  0
LINE
  8
0
 10
44.63
 11
47.55
 20
-19.59
 21
-19
  0
LINE
  8
0
 10
47.55
 11
50.47
 20
-19
 21
-19.59
  0
LINE
  8
0
 10
50.47
 11
52.85
 20
-19.59
 21
-21.2
  0
LINE
  8
0
 10
52.85
 11
54.46
 20
-21.2
 21
-23.58
  0
LINE
  8
0
 10
54.46
 11
55.05
 20
-23.58
 21
-26.5
  0
LINE
  8
0
 10
55.05
 11
54.46
 20
-26.5
 21
-29.42
  0
LINE
  8
0
 10
54.46
 11
52.85
 20
-29.42
 21
-31.8
  0
LINE
  8
0
 10
52.85
 11
50.47
 20
-31.8
 21
-33.41
  0
LINE
  8
0
 10
50.47
 11
47.55
 20
-33.41
 21
-34
  0
LINE
  8
0
 10
47.55
 11
44.63
 20
-34
 21
-33.41
  0
LINE
  8
0
 10
44.63
 11
42.24
 20
-33.41
 21
-31.8
  0
LINE
  8
0
 10
42.24
 11
40.64
 20
-31.8
 21
-29.42
  0
LINE
  8
0
 10
40.64
 11
40.05
 20
-29.42
 21
-26.5
  0
LINE
  8
0
 10
44.21
 11
44.8
 20
-44.04
 21
-41.13
  0
LINE
  8
0
 10
44.8
 11
46.4
 20
-41.13
 21
-38.74
  0
LINE
  8
0
 10
46.4
 11
48.79
 20
-38.74
 21
-37.13
  0
LINE
  8
0
 10
48.79
 11
51.71
 20
-37.13
 21
-36.54
  0
LINE
  8
0
 10
51.71
 11
54.63
 20
-36.54
 21
-37.13
  0
LINE
  8
0
 10
54.63
 11
57.01
 20
-37.13
 21
-38.74
  0
LINE
  8
0
 10
57.01
 11
58.62
 20
-38.74
 21
-41.13
  0
LINE
  8
0
 10
58.62
 11
59.21
 20
-41.13
 21
-44.04
  0
LINE
  8
0
 10
59.21
 11
58.62
 20
-44.04
 21
-46.96
  0
LINE
  8
0
 10
58.62
 11
57.01
 20
-46.96
 21
-49.35
  0
LINE
  8
0
 10
57.01
 11
54.63
 20
-49.35
 21
-50.96
  0
LINE
  8
0
 10
54.63
 11
51.71
 20
-50.96
 21
-51.54
  0
LINE
  8
0
 10
51.71
 11
48.79
 20
-51.54
 21
-50.96
  0
LINE
  8
0
 10
48.79
 11
46.4
 20
-50.96
 21
-49.35
  0
LINE
  8
0
 10
46.4
 11
44.8
 20
-49.35
 21
-46.96
  0
LINE
  8
0
 10
44.8
 11
44.21
 20
-46.96
 21
-44.04
  0
LINE
  8
0
 10
48.53
 11
49.12
 20
-9.53
 21
-6.61
  0
LINE
  8
0
 10
49.12
 11
50.73
 20
-6.61
 21
-4.22
  0
LINE
  8
0
 10
50.73
 11
53.12
 20
-4.22
 21
-2.62
  0
LINE
  8
0
 10
53.12
 11
56.03
 20
-2.62
 21
-2.03
  0
LINE
  8
0
 10
56.03
 11
58.95
 20
-2.03
 21
-2.62
  0
LINE
  8
0
 10
58.95
 11
61.34
 20
-2.62
 21
-4.22
  0
LINE
  8
0
 10
61.34
 11
62.95
 20
-4.22
 21
-6.61
  0
LINE
  8
0
 10
62.95
 11
63.53
 20
-6.61
 21
-9.53
  0
LINE
  8
0
 10
63.53
 11
62.95
 20
-9.53
 21
-12.45
  0
LINE
  8
0
 10
62.95
 11
61.34
 20
-12.45
 21
-14.83
  0
LINE
  8
0
 10
61.34
 11
58.95
 20
-14.83
 21
-16.44
  0
LINE
  8
0
 10
58.95
 11
56.03
 20
-16.44
 21
-17.03
  0
LINE
  8
0
 10
56.03
 11
53.12
 20
-17.03
 21
-16.44
  0
LINE
  8
0
 10
53.12
 11
50.73
 20
-16.44
 21
-14.83
  0
LINE
  8
0
 10
50.73
 11
49.12
 20
-14.83
 21
-12.45
  0
LINE
  8
0
 10
49.12
 11
48.53
 20
-12.45
 21
-9.53
  0
LINE
  8
0
 10
65.27
 11
65.86
 20
-40.39
 21
-37.47
  0
LINE
  8
0
 10
65.86
 11
67.46
 20
-37.47
 21
-35.08
  0
LINE
  8
0
 10
67.46
 11
69.85
 20
-35.08
 21
-33.48
  0
LINE
  8
0
 10
69.85
 11
72.77
 20
-33.48
 21
-32.89
  0
LINE
  8
0
 10
72.77
 11
75.69
 20
-32.89
 21
-33.48
  0
LINE
  8
0
 10
75.69
 11
78.07
 20
-33.48
 21
-35.08
  0
LINE
  8
0
 10
78.07
 11
79.68
 20
-35.08
 21
-37.47
  0
LINE
  8
0
 10
79.68
 11
80.27
 20
-37.47
 21
-40.39
  0
LINE
  8
0
 10
80.27
 11
79.68
 20
-40.39
 21
-43.31
  0
LINE
  8
0
 10
79.68
 11
78.07
 20
-43.31
 21
-45.69
  0
LINE
  8
0
 10
78.07
 11
75.69
 20
-45.69
 21
-47.3
  0
LINE
  8
0
 10
75.69
 11
72.77
 20
-47.3
 21
-47.89
  0
LINE
  8
0
 10
72.77
 11
69.85
 20
-47.89
 21
-47.3
  0
LINE
  8
0
 10
69.85
 11
67.46
 20
-47.3
 21
-45.69
  0
LINE
  8
0
 10
67.46
 11
65.86
 20
-45.69
 21
-43.31
  0
LINE
  8
0
 10
65.86
 11
65.27
 20
-43.31
 21
-40.39
  0
LINE
  8
0
 10
66.9
 11
67.48
 20
-17.78
 21
-14.86
  0
LINE
  8
0
 10
67.48
 11
69.09
 20
-14.86
 21
-12.48
  0
LINE
  8
0
 10
69.09
 11
71.48
 20
-12.48
 21
-10.87
  0
LINE
  8
0
 10
71.48
 11
74.4
 20
-10.87
 21
-10.28
  0
LINE
  8
0
 10
74.4
 11
77.31
 20
-10.28
 21
-10.87
  0
LINE
  8
0
 10
77.31
 11
79.7
 20
-10.87
 21
-12.48
  0
LINE
  8
0
 10
79.7
 11
81.31
 20
-12.48
 21
-14.86
  0
LINE
  8
0
 10
81.31
 11
81.9
 20
-14.86
 21
-17.78
  0
LINE
  8
0
 10
81.9
 11
81.31
 20
-17.78
 21
-20.7
  0
LINE
  8
0
 10
81.31
 11
79.7
 20
-20.7
 21
-23.08
  0
LINE
  8
0
 10
79.7
 11
77.31
 20
-23.08
 21
-24.69
  0
LINE
  8
0
 10
77.31
 11
74.4
 20
-24.69
 21
-25.28
  0
LINE
  8
0
 10
74.4
 11
71.48
 20
-25.28
 21
-24.69
  0
LINE
  8
0
 10
71.48
 11
69.09
 20
-24.69
 21
-23.08
  0
LINE
  8
0
 10
69.09
 11
67.48
 20
-23.08
 21
-20.7
  0
LINE
  8
0
 10
67.48
 11
66.9
 20
-20.7
 21
-17.78
  0
ENDSEC
  0
SECTION
  2
OBJECTS
  0
DICTIONARY
  0
ENDSEC
  0
EOF
